<svg xmlns="http://www.w3.org/2000/svg" width="25" height="24" viewBox="0 0 25 24">
    <path fill="#000" fill-rule="nonzero" d="M12.75 0c-6.624 0-12 5.376-12 12s5.376 12 12 12 12-5.376 12-12-5.376-12-12-12zm1.2 20.4h-2.4V18h2.4v2.4zm2.484-9.3l-1.08 1.104c-.864.876-1.404 1.596-1.404 3.396h-2.4V15c0-1.32.54-2.52 1.404-3.396l1.488-1.512A2.346 2.346 0 0 0 15.15 8.4c0-1.32-1.08-2.4-2.4-2.4-1.32 0-2.4 1.08-2.4 2.4h-2.4c0-2.652 2.148-4.8 4.8-4.8 2.652 0 4.8 2.148 4.8 4.8a3.818 3.818 0 0 1-1.116 2.7z"/>
</svg>
