<svg xmlns="http://www.w3.org/2000/svg" width="25" height="24" viewBox="0 0 25 24">
    <path fill="#000" fill-rule="nonzero" d="M21.43 13.17c.046-.375.077-.765.077-1.17 0-.405-.03-.795-.092-1.17l2.607-1.98a.608.608 0 0 0 .155-.765l-2.47-4.155c-.153-.27-.477-.36-.755-.27l-3.07 1.2a9.106 9.106 0 0 0-2.083-1.17L15.336.51a.611.611 0 0 0-.617-.51H9.78a.595.595 0 0 0-.601.51l-.463 3.18a9.35 9.35 0 0 0-2.083 1.17l-3.07-1.2a.618.618 0 0 0-.757.27L.34 8.085a.571.571 0 0 0 .154.765l2.608 1.98c-.062.375-.108.78-.108 1.17 0 .39.03.795.092 1.17L.478 15.15a.608.608 0 0 0-.155.765l2.47 4.155c.153.27.477.36.755.27l3.07-1.2c.648.48 1.327.87 2.083 1.17l.463 3.18c.062.3.309.51.617.51h4.938c.308 0 .57-.21.601-.51l.463-3.18a9.35 9.35 0 0 0 2.083-1.17l3.07 1.2c.278.105.602 0 .757-.27l2.468-4.155a.571.571 0 0 0-.154-.765l-2.577-1.98zm-9.18 3.33c-2.546 0-4.629-2.025-4.629-4.5s2.083-4.5 4.629-4.5c2.546 0 4.629 2.025 4.629 4.5s-2.083 4.5-4.629 4.5z" opacity=".3"/>
</svg>
